<svg xmlns="http://www.w3.org/2000/svg" width="41.029" height="41.036" viewBox="0 0 41.029 41.036">
  <g id="_2613285_amazon_cloud_computing_commerce_company_electronics_icon" data-name="2613285_amazon_cloud computing_commerce_company_electronics_icon" transform="translate(-0.04 0.01)">
    <path id="Path_124" data-name="Path 124" d="M40.869,4.063c.924,1.221,1.341,3.246,1.546,5.707.271,3.673.38,8.08.484,12.635-.135,4.639-.19,9.318-.484,12.635-.232,2.546-.726,4.251-1.551,5.285-1.049,1.032-3.063,1.9-5.933,2.111-3.491.3-7.8.295-12.551.412-5.282-.09-8.865-.052-12.623-.41a9.957,9.957,0,0,1-6.03-2.1c-.874-1.174-1.13-2.422-1.372-5.347-.3-3.378-.37-7.956-.484-12.555.172-4.575.182-9.187.487-12.634.2-2.72.526-4.548,1.352-5.71C4.867,3.1,6.843,2.608,9.791,2.366a106.71,106.71,0,0,1,12.583-.555c4.471.007,8.763.135,12.593.512,2.583.207,4.721.651,5.9,1.74Z" transform="translate(-1.83 -1.82)" fill="#fc9b00" fill-rule="evenodd"/>
    <path id="Path_125" data-name="Path 125" d="M120.689,323.164a.837.837,0,0,0-.359.081c-.131.052-.262.112-.387.161l-.184.077-.242.1h0a22.644,22.644,0,0,1-7.841,1.723H111.4c-3.965,0-7.2-1.837-10.466-3.65a.742.742,0,0,0-.345-.091.6.6,0,0,0-.4.161.557.557,0,0,0-.174.4.646.646,0,0,0,.254.5c3.067,2.664,6.423,5.132,10.939,5.135h.269a17.76,17.76,0,0,0,8.644-2.619l.015-.01a8.72,8.72,0,0,0,.969-.671.764.764,0,0,0,.323-.6A.718.718,0,0,0,120.689,323.164Z" transform="translate(-92.048 -295.759)" fill="#fff"/>
    <path id="Path_126" data-name="Path 126" d="M341.055,311.38h0a1.141,1.141,0,0,0-.169-.6l-.01-.015-.013-.015a.837.837,0,0,0-.323-.21,4.1,4.1,0,0,0-1.392-.2,6.315,6.315,0,0,0-1.338.14v-.031l-.466.155h-.008l-.262.086v.011a4.163,4.163,0,0,0-.849.475.67.67,0,0,0-.3.528.491.491,0,0,0,.178.379.559.559,0,0,0,.358.122.435.435,0,0,0,.075,0h.04c.228-.048.559-.081.946-.136a9.558,9.558,0,0,1,.991-.064,2.65,2.65,0,0,1,.544.043.634.634,0,0,1,.145.045l.019.01a.469.469,0,0,1,.014.133,4.817,4.817,0,0,1-.255,1.193c-.148.467-.323.929-.439,1.237a.646.646,0,0,0-.045.234.5.5,0,0,0,.511.513h0a.727.727,0,0,0,.442-.168,5.452,5.452,0,0,0,1.607-3.713Z" transform="translate(-308.915 -285.444)" fill="#fff"/>
    <path id="Path_127" data-name="Path 127" d="M162.456,105.724c-.694.052-1.495.1-2.3.211a11.872,11.872,0,0,0-3.471.855,5.13,5.13,0,0,0-3.31,5.015,4.356,4.356,0,0,0,4.589,4.75,8.81,8.81,0,0,0,2.187-.266,6.681,6.681,0,0,0,2.883-1.976,8.289,8.289,0,0,0,1.761,2.029.747.747,0,0,0,.746-.052c.641-.534,1.762-1.5,2.348-2.028a.577.577,0,0,0,.052-.8,4,4,0,0,1-1.174-2.83v-4.8c0-2.028.161-3.9-1.334-5.282A7.149,7.149,0,0,0,160.8,99h-.641c-2.72.161-5.6,1.333-6.242,4.695a.5.5,0,0,0,.428.639l2.987.374a.674.674,0,0,0,.534-.585,2.437,2.437,0,0,1,2.293-1.869h.211a2.1,2.1,0,0,1,1.707.8,4.006,4.006,0,0,1,.374,2.242v.428Zm-.586,6.348a2.591,2.591,0,0,1-1.709,1.388c-.106,0-.266.052-.427.052-1.173,0-1.865-.907-1.865-2.243a2.807,2.807,0,0,1,2.293-2.882,10.407,10.407,0,0,1,2.3-.214v.641A5.694,5.694,0,0,1,161.87,112.072Z" transform="translate(-141.11 -91.164)" fill="#fff"/>
  </g>
</svg>
