<svg xmlns="http://www.w3.org/2000/svg" width="20" height="14.286" viewBox="0 0 20 14.286">
  <path id="_134226_back_arrow_left_icon" data-name="134226_back_arrow_left_icon" d="M20.571,11.714H6.857l3.3-3.3a1.354,1.354,0,0,0,.414-.986A1.445,1.445,0,0,0,9.143,6a1.347,1.347,0,0,0-.986.414L2.473,12.1A1.369,1.369,0,0,0,2,13.143a1.3,1.3,0,0,0,.461,1.034l5.7,5.695a1.347,1.347,0,0,0,.986.414,1.445,1.445,0,0,0,1.429-1.429,1.354,1.354,0,0,0-.414-.986l-3.3-3.3H20.571a1.429,1.429,0,0,0,0-2.857Z" transform="translate(-2 -6)"/>
</svg>
