<svg xmlns="http://www.w3.org/2000/svg" width="20.2" height="20.2" viewBox="0 0 20.2 20.2">
  <g id="edit" transform="translate(-2 -1.8)">
    <path id="Path_128" data-name="Path 128" d="M2,20a2.006,2.006,0,0,0,2,2H6.6L2,17.4Z"/>
    <path id="Path_129" data-name="Path 129" d="M21.6,5.6,18.4,2.4a1.933,1.933,0,0,0-2.8,0l-.2.2a.967.967,0,0,0,0,1.4L20,8.6a.967.967,0,0,0,1.4,0l.2-.2A1.933,1.933,0,0,0,21.6,5.6Z"/>
    <path id="Path_130" data-name="Path 130" d="M14,5.4a.967.967,0,0,0-1.4,0L3.5,14.5A1.009,1.009,0,0,0,3.4,16L8,20.6a.967.967,0,0,0,1.4,0l9.1-9.1a.967.967,0,0,0,0-1.4Z"/>
  </g>
</svg>
