<svg xmlns="http://www.w3.org/2000/svg" width="26" height="22" viewBox="0 0 26 22">
  <g id="Layer_2" data-name="Layer 2" transform="translate(-3 -5)">
    <path id="Path_93" data-name="Path 93" d="M28,9H11a1,1,0,0,1,0-2H28a1,1,0,0,1,0,2Z" fill="#fff"/>
    <path id="Path_94" data-name="Path 94" d="M7,9H4A1,1,0,0,1,4,7H7A1,1,0,0,1,7,9Z" fill="#fff"/>
    <path id="Path_95" data-name="Path 95" d="M21,17H4a1,1,0,0,1,0-2H21a1,1,0,0,1,0,2Z" fill="#fff"/>
    <path id="Path_96" data-name="Path 96" d="M11,25H4a1,1,0,0,1,0-2h7a1,1,0,0,1,0,2Z" fill="#fff"/>
    <path id="Path_97" data-name="Path 97" d="M9,11a3,3,0,1,1,3-3A3,3,0,0,1,9,11ZM9,7a1,1,0,1,0,1,1A1,1,0,0,0,9,7Z" fill="#fff"/>
    <path id="Path_98" data-name="Path 98" d="M23,19a3,3,0,1,1,3-3A3,3,0,0,1,23,19Zm0-4a1,1,0,1,0,1,1A1,1,0,0,0,23,15Z" fill="#fff"/>
    <path id="Path_99" data-name="Path 99" d="M13,27a3,3,0,1,1,3-3A3,3,0,0,1,13,27Zm0-4a1,1,0,1,0,1,1A1,1,0,0,0,13,23Z" fill="#fff"/>
    <path id="Path_100" data-name="Path 100" d="M28,17H25a1,1,0,0,1,0-2h3a1,1,0,0,1,0,2Z" fill="#fff"/>
    <path id="Path_101" data-name="Path 101" d="M28,25H15a1,1,0,0,1,0-2H28a1,1,0,0,1,0,2Z" fill="#fff"/>
  </g>
</svg>
