<svg xmlns="http://www.w3.org/2000/svg" xmlns:xlink="http://www.w3.org/1999/xlink" width="39.993" height="40" viewBox="0 0 39.993 40">
  <defs>
    <clipPath id="clip-path">
      <path id="Path_113" data-name="Path 113" d="M126.042,108.645H115.058V113.2h6.323c-.589,2.893-3.054,4.554-6.323,4.554a6.966,6.966,0,1,1,0-13.931,6.815,6.815,0,0,1,4.34,1.551l3.429-3.429a11.781,11.781,0,1,0-7.769,20.632c5.894,0,11.252-4.287,11.252-11.789A9.779,9.779,0,0,0,126.042,108.645Z" transform="translate(-103.27 -99)" fill="none"/>
    </clipPath>
  </defs>
  <g id="_2613276_company_google_hardware_and_software_internet_search_icon" data-name="2613276_company_google_hardware and software_internet_search_icon" transform="translate(-0.04 0.01)">
    <path id="Path_111" data-name="Path 111" d="M39.884,4.007c.9,1.19,1.307,3.164,1.507,5.563.264,3.58.371,7.876.472,12.315-.131,4.522-.185,9.082-.472,12.315-.227,2.482-.708,4.143-1.512,5.151-1.023,1.006-2.985,1.856-5.783,2.058-3.4.29-7.6.287-12.234.4-5.149-.088-8.641-.05-12.3-.4A9.705,9.705,0,0,1,3.68,39.36c-.852-1.144-1.1-2.36-1.338-5.212-.3-3.293-.36-7.755-.472-12.238.168-4.46.178-8.955.474-12.315.2-2.651.513-4.433,1.318-5.566,1.129-.962,3.055-1.441,5.929-1.677a104.015,104.015,0,0,1,12.265-.541c4.358.007,8.542.131,12.275.5,2.518.2,4.6.635,5.749,1.7Z" transform="translate(-1.83 -1.82)" fill="#fff" fill-rule="evenodd"/>
    <g id="Group_181" data-name="Group 181" transform="translate(8.018 7.638)" clip-path="url(#clip-path)">
      <path id="Path_112" data-name="Path 112" d="M89.66,174.221V160.29l9.109,6.966Z" transform="translate(-90.731 -155.468)" fill="#fbbc05"/>
    </g>
    <g id="Group_182" data-name="Group 182" transform="translate(8.018 7.638)" clip-path="url(#clip-path)">
      <path id="Path_114" data-name="Path 114" d="M89.66,91.274l9.109,6.966,3.751-3.268,12.859-2.09v-7.5H89.66Z" transform="translate(-90.731 -86.452)" fill="#ea4335"/>
    </g>
    <g id="Group_183" data-name="Group 183" transform="translate(8.018 7.638)" clip-path="url(#clip-path)">
      <path id="Path_116" data-name="Path 116" d="M89.66,105.2l16.078-12.323,4.233.536,5.408-8.037V111.1H89.66Z" transform="translate(-90.731 -86.452)" fill="#34a853"/>
    </g>
    <g id="Group_184" data-name="Group 184" transform="translate(8.018 7.638)" clip-path="url(#clip-path)">
      <path id="Path_118" data-name="Path 118" d="M196.943,180.115l-16.61-12.859-2.143-1.608,18.753-5.358Z" transform="translate(-172.295 -155.468)" fill="#4285f4"/>
    </g>
  </g>
</svg>
