<svg xmlns="http://www.w3.org/2000/svg" width="32" height="23" viewBox="0 0 32 23">
  <g id="Group_202" data-name="Group 202" transform="translate(-325 -296)">
    <g id="mail_email_e-mail_letter" data-name="mail email e-mail letter" transform="translate(322 294)">
      <path id="Path_91" data-name="Path 91" d="M28,13a1,1,0,0,0-1,1v8a1,1,0,0,1-1,1H6a1,1,0,0,1-1-1V14a1,1,0,0,0-2,0v8a3,3,0,0,0,3,3H26a3,3,0,0,0,3-3V14A1,1,0,0,0,28,13Z" fill="#b5b1b1"/>
      <path id="Path_92" data-name="Path 92" d="M15.4,18.8a1,1,0,0,0,1.2,0L28.41,9.94a1,1,0,0,0,.3-1.23,3.06,3.06,0,0,0-.59-.83A3,3,0,0,0,26,7H6a3,3,0,0,0-2.12.88,3.06,3.06,0,0,0-.59.83,1,1,0,0,0,.3,1.23ZM6,9H26a.9.9,0,0,1,.28,0L16,16.75,5.72,9A.9.9,0,0,1,6,9Z" fill="#b5b1b1"/>
    </g>
    <ellipse id="Ellipse_1" data-name="Ellipse 1" cx="6.5" cy="6" rx="6.5" ry="6" transform="translate(344 296)" fill="#ef182e"/>
  </g>
</svg>
