<svg xmlns="http://www.w3.org/2000/svg" width="4" height="4" viewBox="0 0 14 14">
  <path id="Icon_metro-cross" data-name="Icon metro-cross" d="M16.443,13.175h0L12.2,8.928l4.247-4.247h0a.439.439,0,0,0,0-.619L14.437,2.056a.439.439,0,0,0-.619,0h0L9.571,6.3,5.324,2.056h0a.439.439,0,0,0-.619,0L2.7,4.062a.439.439,0,0,0,0,.619h0L6.946,8.928,2.7,13.175h0a.438.438,0,0,0,0,.619L4.7,15.8a.439.439,0,0,0,.619,0h0l4.247-4.247L13.818,15.8h0a.438.438,0,0,0,.619,0l2.006-2.006a.438.438,0,0,0,0-.619Z" transform="translate(-2.571 -1.928)" fill="#f7fff7"/>
</svg>
