<svg xmlns="http://www.w3.org/2000/svg" width="26" height="24.909" viewBox="0 0 26 24.909">
  <g id="Shopping_Cart" data-name="Shopping Cart" transform="translate(1 1)">
    <path id="Path_1" data-name="Path 1" d="M15,31.5A1.5,1.5,0,1,1,13.5,30,1.5,1.5,0,0,1,15,31.5Z" transform="translate(-4.65 -10.091)" fill="none" stroke="#121212" stroke-linecap="round" stroke-linejoin="round" stroke-width="2"/>
    <path id="Path_2" data-name="Path 2" d="M31.5,31.5A1.5,1.5,0,1,1,30,30,1.5,1.5,0,0,1,31.5,31.5Z" transform="translate(-10.5 -10.091)" fill="none" stroke="#121212" stroke-linecap="round" stroke-linejoin="round" stroke-width="2"/>
    <path id="Path_3" data-name="Path 3" d="M1.5,1.5H5.864L8.787,13.916a2.131,2.131,0,0,0,2.182,1.493h10.6a2.131,2.131,0,0,0,2.182-1.493L25.5,6.136H6.955" transform="translate(-1.5 -1.5)" fill="none" stroke="#121212" stroke-linecap="round" stroke-linejoin="round" stroke-width="2"/>
  </g>
</svg>
